<svg width="183" height="129" viewBox="0 0 183 129" fill="none" xmlns="http://www.w3.org/2000/svg">
<path d="M174.184 100.14C174.013 100.133 173.364 100.123 172.566 100.292L175.487 94.1044L178.556 100.14H174.184ZM182.247 102.843L175.857 90.2782C175.599 89.7711 174.979 89.5673 174.469 89.8256C173.96 90.0833 173.758 90.7042 174.016 91.2116L174.303 91.7755L169.065 102.87C168.821 103.385 169.043 104 169.559 104.242C169.701 104.309 169.851 104.341 169.998 104.341C170.386 104.341 170.757 104.122 170.934 103.749C171.716 102.092 174.077 102.199 174.093 102.2C174.115 102.201 174.137 102.201 174.158 102.201H179.605L180.405 103.776C180.587 104.135 180.95 104.341 181.327 104.341C181.483 104.341 181.643 104.305 181.793 104.229C182.151 104.048 182.357 103.687 182.359 103.312C182.359 103.154 182.323 102.994 182.247 102.843ZM166.51 97.3377C166.357 97.201 166.192 97.0824 166.022 96.9725C166.808 96.2737 167.224 95.2787 167.224 94.0927C167.224 92.8006 166.814 91.7523 166.003 90.9774C164.711 89.7428 162.894 89.7038 162.485 89.7102C161.032 89.6166 158.467 90.0844 157.75 92.4028C157.582 92.9471 157.887 93.5239 158.433 93.6921C158.975 93.8585 159.555 93.5556 159.724 93.0113C160.148 91.639 162.368 91.7683 162.388 91.77C162.424 91.7724 162.467 91.774 162.503 91.7718C162.521 91.7731 163.822 91.7382 164.582 92.4736C164.97 92.8493 165.159 93.3788 165.159 94.0927C165.159 94.6903 164.992 95.1291 164.648 95.4339C164.104 95.9163 163.19 96.0438 162.534 96.056C162.429 96.0536 162.329 96.053 162.235 96.0536C162.116 96.0494 162.009 96.0427 161.931 96.0336C161.753 96.0105 161.582 96.0395 161.426 96.1009C160.88 96.179 160.488 96.6741 160.548 97.2265C160.607 97.7924 161.109 98.202 161.682 98.1438C161.825 98.1287 162.035 98.119 162.274 98.118C162.33 98.1193 162.384 98.1216 162.447 98.1216C162.456 98.1216 162.468 98.1202 162.478 98.1202C163.326 98.1396 164.491 98.2967 165.133 98.874C165.462 99.1713 165.616 99.5551 165.616 100.082C165.616 100.656 165.448 101.087 165.087 101.437C164.218 102.28 162.457 102.421 161.856 102.403C161.832 102.402 161.807 102.402 161.782 102.403C161.767 102.403 159.586 102.446 158.973 101.052C158.743 100.532 158.134 100.295 157.611 100.524C157.09 100.753 156.853 101.361 157.082 101.882C158.21 104.441 161.394 104.474 161.819 104.464C161.847 104.465 161.883 104.466 161.928 104.466H161.931H161.934H161.936H161.939H161.941H161.944H161.947H161.949H161.952H161.954C162.65 104.465 165.035 104.356 166.519 102.923C167.279 102.189 167.681 101.206 167.681 100.082C167.681 98.9736 167.276 98.0252 166.51 97.3377ZM152.629 102C152.23 102.393 151.627 102.383 151.595 102.385H145.658V98.1891C146.553 98.5297 147.42 98.5145 147.529 98.5115H151.555C151.943 98.548 153.08 98.8067 153.08 100.568C153.08 101.225 152.929 101.707 152.629 102ZM151.595 96.4495L147.5 96.45C147.219 96.4615 146.323 96.3825 145.9 95.9714C145.787 95.8615 145.658 95.6865 145.658 95.3057V91.5687C145.658 90.9996 145.196 90.5375 144.625 90.5375C144.055 90.5375 143.592 90.9996 143.592 91.5687V103.416C143.592 103.985 144.055 104.446 144.625 104.446L151.548 104.446C151.564 104.446 151.594 104.447 151.635 104.447C151.977 104.447 153.127 104.378 154.045 103.503C154.775 102.807 155.145 101.819 155.145 100.568C155.145 97.4473 152.857 96.5104 151.595 96.4495ZM138.622 90.5375H130.781C130.211 90.5375 129.748 90.9996 129.748 91.5687C129.748 92.1383 130.211 92.5995 130.781 92.5995H131.635C131.38 100.949 128.06 102.4 127.955 102.442C127.426 102.627 127.14 103.201 127.314 103.735C127.457 104.171 127.861 104.447 128.296 104.447C128.403 104.447 128.51 104.431 128.617 104.395C128.819 104.33 133.409 102.714 133.702 92.5995H137.59V103.393C137.59 103.962 138.053 104.423 138.622 104.423C139.193 104.423 139.655 103.962 139.655 103.393V91.5687C139.655 90.9996 139.193 90.5375 138.622 90.5375ZM118.475 102.385C115.544 102.385 113.16 100.004 113.16 97.0783C113.16 94.1514 115.544 91.7713 118.475 91.7713C121.407 91.7713 123.791 94.1514 123.791 97.0783C123.791 100.004 121.407 102.385 118.475 102.385ZM118.475 89.7093C114.406 89.7093 111.094 93.0145 111.094 97.0783C111.094 101.141 114.406 104.446 118.475 104.446C122.545 104.446 125.856 101.141 125.856 97.0783C125.856 93.0145 122.545 89.7093 118.475 89.7093ZM106.869 90.5375H97.962C97.3919 90.5375 96.9293 90.9996 96.9293 91.5687V103.393C96.9293 103.962 97.3919 104.423 97.962 104.423C98.5324 104.423 98.9944 103.962 98.9944 103.393V92.5995H105.836V103.393C105.836 103.962 106.299 104.423 106.869 104.423C107.439 104.423 107.901 103.962 107.901 103.393V91.5687C107.901 90.9996 107.439 90.5375 106.869 90.5375Z" fill="#156A31"/>
<path d="M81.7023 97.2791C81.2277 97.1467 80.7181 97.075 80.2286 97.0555H78.6367C78.6205 97.0555 78.6013 97.0559 78.5844 97.0568C78.3926 97.0661 78.0932 97.0624 77.7434 97.0316C77.738 97.031 77.7328 97.0307 77.7274 97.0307C76.8766 96.9537 75.7313 96.7135 75.0706 96.0854C74.6853 95.7189 74.5058 95.2647 74.5058 94.6553C74.5058 92.9244 75.3872 92.6373 75.6096 92.5936H81.7023V97.2791ZM82.7349 90.5316H75.5384C75.5065 90.5316 75.4744 90.5333 75.4423 90.536C74.4041 90.6333 72.4403 91.6194 72.4403 94.6553C72.4403 95.8208 72.8602 96.8338 73.6529 97.5848C74.2617 98.1606 75.0157 98.5204 75.7556 98.7477C74.6735 100.015 72.9967 101.857 71.7039 102.723C71.2303 103.041 71.1041 103.682 71.4223 104.154C71.6217 104.451 71.948 104.611 72.2802 104.611C72.4781 104.611 72.6784 104.554 72.855 104.435C74.7738 103.149 77.2385 100.221 78.1329 99.1205C78.3853 99.1265 78.5736 99.1212 78.6621 99.1175L80.1864 99.117C80.7641 99.1399 81.4862 99.3235 81.7023 99.4939V103.58C81.7023 104.149 82.1649 104.611 82.7349 104.611C83.3049 104.611 83.7676 104.149 83.7676 103.58V91.5625C83.7676 90.9936 83.3049 90.5316 82.7349 90.5316ZM61.6517 100.41C61.4798 100.402 60.8309 100.392 60.0337 100.561L62.9545 94.3742L66.0241 100.41H61.6517ZM63.3251 90.5481C63.0669 90.0407 62.4448 89.8367 61.9374 90.0955C61.4287 90.3532 61.2258 90.9741 61.484 91.4815L61.7706 92.0454L56.5328 103.14C56.2899 103.655 56.5107 104.27 57.0271 104.512C57.1692 104.579 57.3188 104.611 57.4663 104.611C57.8543 104.611 58.2253 104.392 58.4013 104.019C59.1844 102.361 61.5438 102.468 61.5614 102.469C61.5831 102.471 61.6048 102.471 61.6265 102.471H67.0728L67.8735 104.046C68.0553 104.405 68.4183 104.611 68.7946 104.611C68.9521 104.611 69.1116 104.574 69.2615 104.499C69.7701 104.241 69.9726 103.621 69.7148 103.113L63.3251 90.5481ZM54.3888 90.534H45.4179C44.8476 90.534 44.3852 90.996 44.3852 91.565C44.3852 92.1348 44.8476 92.5962 45.4179 92.5962H48.8707V103.389C48.8707 103.958 49.3331 104.42 49.9036 104.42C50.4737 104.42 50.9364 103.958 50.9364 103.389V92.5962H54.3888C54.9595 92.5962 55.4215 92.1348 55.4215 91.565C55.4215 90.996 54.9595 90.534 54.3888 90.534ZM42.8918 100.316C42.4435 99.9638 41.794 100.041 41.4418 100.489C40.4427 101.757 38.9441 102.484 37.3306 102.484C34.4478 102.484 32.1026 100.143 32.1026 97.2655C32.1026 94.3876 34.4478 92.0462 37.3306 92.0462C38.6901 92.0462 39.9781 92.5642 40.9571 93.5065C41.3674 93.9 42.0208 93.889 42.4174 93.4791C42.8129 93.0689 42.8008 92.4161 42.3901 92.0217C41.0242 90.7073 39.2273 89.9841 37.3306 89.9841C33.3091 89.9841 30.0376 93.2503 30.0376 97.2655C30.0376 101.279 33.3091 104.546 37.3306 104.546C39.5816 104.546 41.6719 103.532 43.0649 101.764C43.4177 101.316 43.34 100.668 42.8918 100.316ZM26.3778 90.0286C25.9605 89.8843 25.499 90.0212 25.2282 90.367L17.1666 100.643V91.003C17.1666 90.4334 16.704 89.9721 16.134 89.9721C15.5636 89.9721 15.1013 90.4334 15.1013 91.003V103.632C15.1013 104.072 15.3806 104.463 15.7972 104.606C15.9074 104.644 16.0212 104.663 16.1337 104.663C16.4455 104.663 16.7474 104.522 16.9468 104.268L25.0084 93.9913V103.632C25.0084 104.201 25.4706 104.663 26.041 104.663C26.611 104.663 27.0737 104.201 27.0737 103.632V91.003C27.0737 90.5636 26.7941 90.1714 26.3778 90.0286ZM10.288 89.971C9.71735 89.971 9.25537 90.4324 9.25537 91.0021V96.0596C9.25537 96.6291 9.25537 97.9611 5.96371 97.9611C4.73541 97.9611 3.81454 97.6842 3.29983 97.162C2.79494 96.6486 2.79972 96.0275 2.79947 96.0182C2.80037 95.9996 2.80102 95.9816 2.80102 95.9637V91.0021C2.80102 90.4324 2.33877 89.971 1.76837 89.971C1.19809 89.971 0.735976 90.4324 0.735976 91.0021V95.9455C0.72861 96.2125 0.752646 97.477 1.77922 98.5577C2.70268 99.5301 4.11008 100.023 5.96371 100.023C7.41079 100.023 8.47471 99.7827 9.25537 99.4083V103.631C9.25537 104.2 9.71735 104.662 10.288 104.662C10.858 104.662 11.3204 104.2 11.3204 103.631V91.0021C11.3204 90.4324 10.858 89.971 10.288 89.971Z" fill="#156A31"/>
<path fill-rule="evenodd" clip-rule="evenodd" d="M91.6566 0.987213C84.0391 9.08479 69.876 15.1708 67.084 24.8667C65.9955 23.3675 64.7493 21.0138 63.7323 19.3594C58.975 28.7757 56.227 36.1807 60.7171 47.9128C56.8526 47.1727 56.9865 44.3254 54.529 41.5949C53.3457 61.2628 67.084 81.07 86.542 79.4959C72.1551 75.6557 64.9829 61.4019 72.5127 45.8294C81.3585 27.5045 86.8995 22.0655 91.6566 0.987213Z" fill="#3C9F3A"/>
<path fill-rule="evenodd" clip-rule="evenodd" d="M98.6271 73.8971C110.912 67.9955 112.188 51.7528 102.558 43.3071C105.396 62.5585 103.765 60.939 98.6271 73.8971Z" fill="#156A31"/>
<path fill-rule="evenodd" clip-rule="evenodd" d="M91.808 0.987213C99.4256 9.08479 113.589 15.1708 116.381 24.8667C117.469 23.3675 118.715 21.0138 119.732 19.3594C124.49 28.7757 127.238 36.1807 122.748 47.9128C126.612 47.1727 126.478 44.3254 128.936 41.5949C130.119 61.2628 116.381 81.07 96.9227 79.4959C111.31 75.6557 118.482 61.4019 110.952 45.8294C102.106 27.5045 96.5651 22.0655 91.808 0.987213Z" fill="#156A31"/>
<path d="M27.8338 118.425C28.2901 118.91 28.6395 119.508 28.887 120.225C29.132 120.939 29.2558 121.785 29.2558 122.763C29.2558 123.629 29.132 124.426 28.8821 125.154C28.6346 125.881 28.2755 126.505 27.8047 127.023C27.3218 127.557 26.7564 127.96 26.1109 128.228C25.463 128.499 24.7544 128.633 23.9804 128.633C23.3132 128.633 22.6772 128.566 22.0754 128.429C21.4738 128.292 20.9665 128.132 20.5539 127.944V126.291H20.668C21.0514 126.618 21.5368 126.879 22.1216 127.072C22.7065 127.266 23.335 127.364 24.0022 127.364C24.5846 127.364 25.1185 127.256 25.6014 127.036C26.0843 126.817 26.4871 126.518 26.8098 126.139C27.152 125.737 27.4091 125.283 27.5814 124.774C27.7538 124.269 27.8411 123.694 27.8411 123.049H22.061V121.741H27.7708C27.7029 121.143 27.562 120.622 27.3436 120.181C27.1252 119.74 26.8487 119.377 26.5113 119.09C26.1764 118.804 25.793 118.59 25.3684 118.453C24.9413 118.314 24.4851 118.244 24.0022 118.244C23.3544 118.244 22.7452 118.342 22.1749 118.536C21.6071 118.729 21.117 118.995 20.7045 119.333H20.5831V117.672C21.0248 117.473 21.5442 117.308 22.1459 117.177C22.7501 117.043 23.3641 116.975 23.995 116.975C24.8103 116.975 25.5382 117.097 26.1814 117.339C26.8244 117.579 27.3751 117.943 27.8338 118.425ZM38.5545 128.429H36.8074L33.5097 124.56H32.7817V128.429H31.4448V119.99H32.7817V123.632C33.2234 123.632 33.5778 123.547 33.8494 123.379C34.1187 123.209 34.3494 122.938 34.5386 122.567C34.6042 122.43 34.6696 122.286 34.7327 122.131C34.7983 121.979 34.8614 121.832 34.922 121.69C35.167 121.12 35.4752 120.694 35.8466 120.413C36.2153 120.132 36.7468 119.99 37.4384 119.99H38.0498V121.215H37.4603C37.0865 121.215 36.7929 121.3 36.5818 121.468C36.3707 121.636 36.179 121.932 36.009 122.355C35.8199 122.83 35.6185 123.183 35.4097 123.415C35.1985 123.65 34.9729 123.828 34.7376 123.949L38.5545 128.429ZM46.7736 124.212C46.7736 125.589 46.4411 126.675 45.7787 127.47C45.1162 128.267 44.2257 128.664 43.1118 128.664C41.9907 128.664 41.0977 128.267 40.4376 127.47C39.7752 126.675 39.4452 125.589 39.4452 124.212C39.4452 122.838 39.7752 121.752 40.4376 120.952C41.0977 120.155 41.9907 119.756 43.1118 119.756C44.2257 119.756 45.1162 120.155 45.7787 120.952C46.4411 121.752 46.7736 122.838 46.7736 124.212ZM45.3952 124.212C45.3952 123.121 45.1938 122.309 44.791 121.778C44.3882 121.246 43.8276 120.981 43.1118 120.981C42.3887 120.981 41.8257 121.246 41.4252 121.778C41.025 122.309 40.8235 123.121 40.8235 124.212C40.8235 125.27 41.025 126.072 41.4276 126.618C41.8306 127.165 42.3936 127.439 43.1118 127.439C43.8227 127.439 44.3809 127.168 44.7862 126.626C45.1914 126.085 45.3952 125.28 45.3952 124.212ZM59.7994 121.236C60.1319 121.589 60.3818 122.015 60.5518 122.518C60.724 123.018 60.809 123.606 60.809 124.282C60.809 125.54 60.4523 126.585 59.7414 127.418C59.0302 128.248 58.1567 128.664 57.1182 128.664C56.6061 128.664 56.1354 128.571 55.7034 128.388C55.2714 128.205 54.9051 127.921 54.6016 127.537C54.2231 127.059 53.9392 126.456 53.7525 125.729C53.5655 125.001 53.4709 124.112 53.4709 123.064C53.4709 122.688 53.488 122.304 53.522 121.912C53.5535 121.522 53.6286 121.055 53.7476 120.511C53.8422 120.042 53.9806 119.591 54.1649 119.157C54.3469 118.724 54.563 118.376 54.8153 118.108C55.155 117.739 55.6064 117.445 56.1619 117.221C56.7201 116.996 57.4578 116.841 58.3775 116.756C58.7512 116.72 59.1007 116.692 59.4234 116.669C59.7437 116.645 60.035 116.625 60.2897 116.604V117.912C59.9767 117.932 59.6685 117.953 59.3627 117.971C59.057 117.992 58.7512 118.017 58.4479 118.048C57.8412 118.102 57.2928 118.208 56.8002 118.365C56.31 118.52 55.9509 118.722 55.7228 118.969C55.4729 119.237 55.2836 119.586 55.1573 120.016C55.0336 120.447 54.9512 120.857 54.9123 121.244C55.2691 120.973 55.6596 120.743 56.0819 120.56C56.5066 120.377 56.958 120.284 57.4384 120.284C57.8826 120.284 58.312 120.362 58.7246 120.519C59.1371 120.674 59.4962 120.914 59.7994 121.236ZM59.4501 124.364C59.4501 123.433 59.2391 122.737 58.8168 122.275C58.3946 121.814 57.8388 121.584 57.1473 121.584C56.7347 121.584 56.3368 121.654 55.9581 121.793C55.5796 121.93 55.2181 122.116 54.8783 122.348C54.8686 122.474 54.8589 122.621 54.8517 122.788C54.8445 122.959 54.842 123.114 54.842 123.253C54.842 124.13 54.9099 124.839 55.0483 125.383C55.1865 125.927 55.3806 126.361 55.6307 126.683C55.8491 126.954 56.0869 127.147 56.3417 127.261C56.5988 127.374 56.8731 127.431 57.1667 127.431C57.8826 127.431 58.443 127.157 58.8458 126.608C59.2488 126.059 59.4501 125.311 59.4501 124.364ZM67.7976 125.837C67.7976 125.582 67.7564 125.355 67.674 125.161C67.5914 124.968 67.453 124.81 67.2638 124.689C67.0648 124.563 66.8391 124.486 66.5844 124.462C66.3321 124.437 65.968 124.424 65.4948 124.424H64.2427V127.297H65.4657C65.9388 127.297 66.3078 127.276 66.5674 127.232C66.8295 127.188 67.0526 127.108 67.242 126.987C67.4386 126.856 67.5792 126.701 67.6667 126.523C67.7539 126.343 67.7976 126.116 67.7976 125.837ZM69.176 125.814C69.176 126.224 69.0983 126.593 68.9454 126.925C68.7901 127.258 68.5814 127.526 68.317 127.733C68.0039 127.985 67.669 128.163 67.3124 128.269C66.958 128.375 66.4994 128.429 65.9413 128.429H62.9056V119.99H64.2427V123.276H65.9777C66.5746 123.276 67.0382 123.31 67.3657 123.374C67.6958 123.438 68.0233 123.601 68.351 123.859C68.6252 124.076 68.8314 124.352 68.9697 124.689C69.108 125.027 69.176 125.401 69.176 125.814ZM70.5058 119.99H71.8428V128.429H70.5058V119.99ZM80.3117 121.236H77.4387V128.429H76.1016V121.236H73.2285V119.99H80.3117V121.236ZM88.4651 124.212C88.4651 125.589 88.1326 126.675 87.4702 127.47C86.8076 128.267 85.9171 128.664 84.8033 128.664C83.6822 128.664 82.7893 128.267 82.1292 127.47C81.4668 126.675 81.1368 125.589 81.1368 124.212C81.1368 122.838 81.4668 121.752 82.1292 120.952C82.7893 120.155 83.6822 119.756 84.8033 119.756C85.9171 119.756 86.8076 120.155 87.4702 120.952C88.1326 121.752 88.4651 122.838 88.4651 124.212ZM87.0868 124.212C87.0868 123.121 86.8854 122.309 86.4826 121.778C86.0797 121.246 85.5191 120.981 84.8033 120.981C84.0802 120.981 83.5173 121.246 83.1168 121.778C82.7164 122.309 82.5151 123.121 82.5151 124.212C82.5151 125.27 82.7164 126.072 83.1192 126.618C83.522 127.165 84.0851 127.439 84.8033 127.439C85.5143 127.439 86.0725 127.168 86.4777 126.626C86.883 126.085 87.0868 125.28 87.0868 124.212ZM97.0892 125.876C97.0892 126.283 97.0115 126.647 96.8586 126.964C96.7033 127.281 96.4921 127.544 96.2228 127.756C95.9194 127.993 95.5872 128.163 95.2304 128.269C94.8711 128.375 94.4028 128.429 93.818 128.429H90.5349V119.99H93.6044C94.199 119.99 94.6455 120.011 94.9465 120.055C95.2473 120.099 95.5289 120.192 95.7957 120.338C96.0942 120.504 96.3126 120.72 96.4534 120.988C96.5916 121.254 96.6619 121.569 96.6619 121.932C96.6619 122.35 96.5504 122.714 96.3272 123.021C96.1064 123.327 95.8176 123.568 95.4681 123.738V123.815C95.9365 123.934 96.3248 124.168 96.6304 124.511C96.9361 124.857 97.0892 125.311 97.0892 125.876ZM95.291 122.152C95.291 121.968 95.2547 121.806 95.1818 121.659C95.1066 121.512 94.9949 121.399 94.842 121.319C94.643 121.213 94.4199 121.154 94.1724 121.14C93.9223 121.128 93.6166 121.122 93.2501 121.122H91.8574V123.436H93.5268C93.8787 123.436 94.1384 123.423 94.3057 123.395C94.4757 123.366 94.643 123.297 94.8153 123.186C94.9949 123.064 95.1187 122.923 95.189 122.76C95.257 122.595 95.291 122.391 95.291 122.152ZM95.7108 125.883C95.7108 125.607 95.6672 125.383 95.5823 125.208C95.4972 125.035 95.3105 124.875 95.0217 124.728C94.842 124.638 94.6455 124.584 94.4392 124.566C94.2305 124.548 93.9394 124.54 93.5704 124.54H91.8574V127.297H93.1241C93.653 127.297 94.0631 127.279 94.3494 127.24C94.6358 127.201 94.8833 127.121 95.092 126.995C95.3008 126.869 95.456 126.714 95.558 126.533C95.6598 126.353 95.7108 126.136 95.7108 125.883ZM105.364 128.429H104.034V127.531C103.915 127.617 103.755 127.735 103.554 127.89C103.352 128.042 103.158 128.166 102.969 128.256C102.746 128.372 102.488 128.468 102.2 128.548C101.911 128.625 101.574 128.664 101.183 128.664C100.469 128.664 99.8628 128.411 99.3652 127.908C98.8678 127.405 98.6179 126.763 98.6179 125.982C98.6179 125.342 98.7465 124.824 99.0062 124.429C99.2634 124.034 99.6322 123.722 100.11 123.495C100.593 123.268 101.176 123.116 101.853 123.034C102.53 122.954 103.258 122.894 104.034 122.853V122.634C104.034 122.312 103.981 122.043 103.874 121.832C103.767 121.62 103.614 121.453 103.415 121.332C103.226 121.215 102.998 121.138 102.733 121.097C102.469 121.058 102.19 121.037 101.901 121.037C101.552 121.037 101.161 121.087 100.729 121.184C100.297 121.282 99.8531 121.427 99.392 121.613H99.3215V120.168C99.5812 120.093 99.9598 120.011 100.452 119.921C100.945 119.83 101.43 119.784 101.908 119.784C102.469 119.784 102.954 119.833 103.369 119.931C103.784 120.029 104.143 120.197 104.447 120.434C104.745 120.666 104.973 120.965 105.128 121.334C105.286 121.7 105.364 122.157 105.364 122.701V128.429ZM104.034 126.35V124.001C103.626 124.026 103.146 124.063 102.595 124.114C102.042 124.163 101.605 124.238 101.282 124.334C100.899 124.449 100.588 124.63 100.35 124.872C100.115 125.117 99.9962 125.455 99.9962 125.883C99.9962 126.366 100.135 126.729 100.409 126.974C100.683 127.219 101.103 127.341 101.666 127.341C102.136 127.341 102.566 127.242 102.954 127.049C103.343 126.856 103.702 126.624 104.034 126.35ZM114.039 128.429H112.702V125.081H111.13L108.671 128.429H107.099L109.773 124.945C109.084 124.743 108.581 124.437 108.264 124.019C107.946 123.604 107.788 123.059 107.788 122.384C107.788 121.938 107.883 121.556 108.072 121.244C108.261 120.932 108.501 120.679 108.79 120.48C109.074 120.289 109.402 120.161 109.773 120.093C110.142 120.024 110.545 119.99 110.981 119.99H114.039V128.429ZM112.702 123.962V121.122H111.015C110.651 121.122 110.387 121.135 110.227 121.161C110.064 121.184 109.889 121.254 109.7 121.365C109.516 121.476 109.377 121.626 109.29 121.814C109.203 122.002 109.159 122.208 109.159 122.43C109.159 122.706 109.186 122.93 109.242 123.101C109.295 123.274 109.409 123.433 109.579 123.586C109.754 123.73 109.967 123.831 110.219 123.882C110.469 123.936 110.751 123.962 111.059 123.962H112.702ZM128.662 128.429H126.977L124.723 125.187L122.454 128.429H120.899L123.998 124.22L120.928 119.99H122.617L124.852 123.178L127.096 119.99H128.662L125.541 124.145L128.662 128.429ZM137.094 128.429H135.771V122.09L131.612 128.429H130.404V119.99H131.726V126.239L135.842 119.99H137.094V128.429ZM147.232 128.429H145.91V121.765L143.935 126.103H142.94L140.977 121.765V128.429H139.725V119.99H141.338L143.5 124.712L145.589 119.99H147.232V128.429ZM156.553 128.429H155.23V122.09L151.071 128.429H149.863V119.99H151.185V126.239L155.301 119.99H156.553V128.429ZM165.284 128.429H163.947V125.081H162.374L159.916 128.429H158.344L161.018 124.945C160.329 124.743 159.826 124.437 159.509 124.019C159.191 123.604 159.033 123.059 159.033 122.384C159.033 121.938 159.128 121.556 159.317 121.244C159.506 120.932 159.746 120.679 160.035 120.48C160.319 120.289 160.647 120.161 161.018 120.093C161.387 120.024 161.79 119.99 162.226 119.99H165.284V128.429ZM163.947 123.962V121.122H162.26C161.896 121.122 161.632 121.135 161.472 121.161C161.309 121.184 161.134 121.254 160.945 121.365C160.761 121.476 160.622 121.626 160.535 121.814C160.448 122.002 160.404 122.208 160.404 122.43C160.404 122.706 160.431 122.93 160.486 123.101C160.54 123.274 160.654 123.433 160.824 123.586C160.998 123.73 161.212 123.831 161.464 123.882C161.714 123.936 161.996 123.962 162.304 123.962H163.947Z" fill="#156A31"/>
</svg>
