<svg width="52" height="52" viewBox="0 0 52 52" fill="none" xmlns="http://www.w3.org/2000/svg">
<path d="M42.9 0H9.1C4.07421 0 0 4.07421 0 9.1V42.9C0 47.9258 4.07421 52 9.1 52H42.9C47.9258 52 52 47.9258 52 42.9V9.1C52 4.07421 47.9258 0 42.9 0Z" fill="#3C9F3A"/>
<path d="M7.81627 16.0631H14.0563C14.1867 16.0629 14.3141 16.1025 14.4216 16.1765C14.529 16.2505 14.6113 16.3555 14.6575 16.4775C15.3481 18.2569 18.2163 25.22 20.8406 25.7888C22.7906 25.7888 22.1 16.5263 19.6219 16.5263C18.9719 16.5263 20.7756 15.3725 20.8975 15.3238C23.2005 14.6925 25.6308 14.6925 27.9338 15.3238C29.1769 15.8438 29.3881 17.2981 29.4206 18.5331C29.4531 19.7681 28.0394 25.0331 29.9 25.6019C32.3375 26.3494 35.4738 18.7038 36.205 16.8269C36.2526 16.7064 36.3354 16.6032 36.4427 16.5306C36.55 16.4581 36.6768 16.4198 36.8063 16.4206H43.7531C43.8605 16.4203 43.9663 16.4466 44.061 16.4971C44.1557 16.5476 44.2365 16.6208 44.296 16.7101C44.3556 16.7994 44.3921 16.9021 44.4023 17.009C44.4124 17.1158 44.396 17.2235 44.3544 17.3225C42.9234 20.5869 41.2079 23.719 39.2275 26.6825C39.0592 26.9271 38.9802 27.2221 39.0038 27.5181C39.0275 27.8141 39.1524 28.0928 39.3575 28.3075C41.4375 30.5338 47.125 36.8388 43.875 36.8388H36.8631C36.6819 36.8392 36.5027 36.801 36.3374 36.7268C36.172 36.6525 36.0244 36.5439 35.9044 36.4081C34.8156 35.2056 31.6469 31.8581 30.2169 32.1263C29.0306 32.3456 28.9169 34.3606 28.9738 35.6769C28.9917 36.0165 28.8758 36.3496 28.651 36.6048C28.4263 36.8599 28.1104 37.0169 27.7713 37.0419C26.5281 37.115 24.83 37.1475 24.6756 37.1394C19.7194 36.8225 16.7863 33.5156 13.9831 29.8269C11.0469 25.9161 8.75639 21.5601 7.19877 16.9244C7.16694 16.8263 7.1586 16.7221 7.17442 16.6202C7.19025 16.5183 7.22981 16.4215 7.2899 16.3377C7.34999 16.2539 7.42893 16.1854 7.52036 16.1377C7.6118 16.09 7.71316 16.0645 7.81627 16.0631Z" fill="white"/>
</svg>
