<svg width="52" height="52" viewBox="0 0 52 52" fill="none" xmlns="http://www.w3.org/2000/svg">
<path d="M42.9 0H9.1C4.07421 0 0 4.07421 0 9.1V42.9C0 47.9258 4.07421 52 9.1 52H42.9C47.9258 52 52 47.9258 52 42.9V9.1C52 4.07421 47.9258 0 42.9 0Z" fill="#3C9F3A"/>
<path d="M21.6769 39.8101C20.5176 39.8101 20.623 39.3886 20.3068 38.3346L16.9341 27.2679L42.7563 12.0908" fill="#C8DAEA"/>
<path d="M21.677 39.8103C22.4148 39.8103 22.8364 39.3887 23.3633 38.9671L28.1062 34.435L22.204 30.8516" fill="#A9C9DD"/>
<path d="M22.2039 30.8512L36.4325 41.2855C37.908 42.234 39.1728 41.7071 39.5944 39.8099L45.3912 12.6176C45.9182 10.2989 44.4426 9.24489 42.8617 9.98266L9.02936 23.0518C6.81603 23.895 6.81603 25.2652 8.60778 25.7922L17.3557 28.5325L37.3811 15.7795C38.3296 15.2525 39.1728 15.4633 38.5404 16.2011" fill="#F6FBFE"/>
</svg>
