<svg width="52" height="52" viewBox="0 0 52 52" fill="none" xmlns="http://www.w3.org/2000/svg">
<path d="M42.9 0H9.1C4.07421 0 0 4.07421 0 9.1V42.9C0 47.9258 4.07421 52 9.1 52H42.9C47.9258 52 52 47.9258 52 42.9V9.1C52 4.07421 47.9258 0 42.9 0Z" fill="#3C9F3A"/>
<path fill-rule="evenodd" clip-rule="evenodd" d="M26.517 40.9214C23.4104 40.9214 20.3038 40.0742 17.762 38.3797L11.8312 40.3566L13.8082 34.7082C12.1136 32.1664 10.984 29.0598 10.984 25.6708C10.984 25.1059 10.984 24.5411 10.984 24.2587C11.8312 16.3509 18.3269 10.1377 26.517 10.1377C34.7072 10.1377 41.2029 16.3509 42.0501 24.5411C42.0501 24.8235 42.0501 25.1059 42.0501 25.6708C42.0501 34.1434 34.9896 40.9214 26.517 40.9214ZM44.8743 25.1059C44.5919 15.2212 36.4017 7.31348 26.517 7.31348C16.6324 7.31348 8.44218 14.9388 7.87734 24.8235C7.87734 25.1059 7.87734 25.3883 7.87734 25.6708C7.87734 29.0598 9.00702 32.4488 10.7015 34.9906L7.3125 44.8753L17.4796 41.7687C20.0214 43.1808 23.128 44.028 26.517 44.028C36.6842 44.028 44.8743 35.8379 44.8743 25.6708C44.8743 25.3883 44.8743 25.3883 44.8743 25.1059Z" fill="#FEFEFE"/>
<path fill-rule="evenodd" clip-rule="evenodd" d="M34.9909 29.3345C34.426 29.0521 32.1667 27.9224 31.8842 27.9224C31.3194 27.64 31.037 27.64 30.7546 28.2048C30.4721 28.4872 29.6249 29.6169 29.3425 29.8993C29.06 30.1817 28.7776 30.1817 28.4952 29.8993C27.9304 29.6169 26.5183 29.3345 24.8237 27.64C23.4117 26.5103 22.5644 25.0982 22.282 24.5333C21.9996 24.2509 22.282 23.9685 22.282 23.6861C22.5644 23.4037 22.8468 23.1212 23.1292 22.8388C23.1292 22.8388 23.1292 22.8388 23.1292 22.5564C23.4117 22.5564 23.4117 22.274 23.4117 22.274C23.6941 21.7091 23.6941 21.7091 23.4117 21.4267C23.4117 21.1443 22.5644 18.8849 21.9996 18.0377C21.7171 17.1904 21.4347 17.1904 21.1523 17.1904C20.8699 17.1904 20.5875 17.1904 20.305 17.1904C20.0226 17.1904 19.4578 17.4728 18.8929 17.7553C18.6105 18.3201 17.4808 19.4498 17.4808 21.4267C17.4808 21.9916 17.4808 22.5564 17.7633 23.1212C18.0457 24.5333 19.1754 25.9454 19.1754 26.2279C19.4578 26.5103 22.282 31.3114 27.0831 33.0059C31.6018 34.7005 31.6018 34.1356 32.4491 34.1356C33.2963 34.1356 35.2733 33.0059 35.5557 31.8763C35.8381 31.029 35.8381 29.8993 35.8381 29.8993C35.5557 29.6169 35.2733 29.6169 34.9909 29.3345Z" fill="#FEFEFE"/>
</svg>
